<svg width="35" height="35" viewBox="0 0 35 35" fill="none" xmlns="http://www.w3.org/2000/svg">
<g clip-path="url(#clip0_29_11)">
<rect width="35" height="35" fill="white"/>
<rect x="0.380859" y="-0.849121" width="38" height="38" fill="black"/>
<path d="M13.9478 29.6172C14.2659 28.4151 13.3933 28.0316 12.9172 27.9901C11.8118 28.2425 8.9453 28.6031 6.32237 28.0264C3.0437 27.3056 1.79025 21.6295 2.01452 16.7984C2.18867 13.047 3.6549 10.7006 5.13296 9.93082C7.26793 8.81891 5.8331 13.5559 6.89545 16.9358C8.00024 20.4507 9.26692 21.0595 9.71415 20.2771C10.1614 19.4947 9.73932 18.2154 8.60939 16.7621C7.47946 15.3088 7.35623 9.47149 8.01462 8.11796C8.67302 6.76443 10.4984 8.61518 10.8832 10.5651C11.1545 11.9405 11.3295 15.4337 11.6025 16.9737C11.8209 18.2058 13.9478 19.5874 13.9478 17.5856C13.9478 15.5838 12.4018 11.6552 12.7465 8.51609C13.1298 5.02564 15.0649 2.49269 15.7154 4.33124C16.994 7.94555 16.5963 9.44826 16.0991 12.7393C15.7012 15.3722 17.2329 15.7327 18.0485 15.5838C18.0651 15.0166 18.2749 12.9682 18.9809 9.31202C19.8634 4.74179 23.5028 2.20871 24.8069 2.14672C25.8502 2.09712 26.3428 2.75549 26.4586 3.09087C26.1605 3.34339 24.1333 4.93929 23.3655 6.28233C22.1232 8.45557 21.5888 10.8028 23.0666 11.6476C23.9992 12.1806 26.9181 4.00225 29.1534 4.63133C32.3327 5.52604 32.3199 7.36425 32.8412 9.27696C33.5168 11.7554 30.2769 14.6449 27.8973 15.101C26.084 15.4485 21.4883 18.242 22.3079 18.8259C23.1275 19.4097 26.009 18.4043 28.2199 17.3613C30.4308 16.3183 32.6666 14.0212 33.7224 13.5867C34.7781 13.1522 35.3742 13.7236 32.2438 17.5856C29.1134 21.4476 23.7729 22.3161 21.9471 22.8871C20.1213 23.4581 20.2827 23.7811 22.4312 24.6632C24.5796 25.5453 25.7618 24.8049 27.7098 23.2979C31.2249 20.5786 31.8706 21.8703 26.7897 29.3461C21.7089 36.822 19.0792 30.4371 18.0485 29.6172C17.0178 28.7974 13.5501 31.12 13.9478 29.6172Z" fill="white"/>
</g>
<defs>
<clipPath id="clip0_29_11">
<rect width="35" height="35" fill="white"/>
</clipPath>
</defs>
</svg>
