<svg width="35" height="35" viewBox="0 0 35 35" fill="none" xmlns="http://www.w3.org/2000/svg">
<g clip-path="url(#clip0_35_2)">
<rect width="35" height="35" fill="white"/>
<rect x="0.380859" y="-0.849121" width="38" height="38" fill="black"/>
<path d="M25.1698 21.3558C27.7745 19.3408 28.2529 20.2979 24.4881 25.8374C20.7644 31.3164 13.8388 29.1809 9.45375 26.3219C7.37004 24.9633 5.9639 20.1195 6.13009 16.5397C6.25912 13.76 7.34558 12.0214 8.44079 11.451C10.0228 10.6271 8.95959 14.1371 9.74677 16.6415C10.5654 19.246 10.3232 19.1787 10.9355 18.9123C12.2582 18.3367 10.5707 14.4547 10.9355 11.132C11.2195 8.54559 13.3475 6.78078 14.64 7.42703C15.381 7.79752 14.1943 10.0943 13.8995 12.0453C13.6047 13.9962 14.7771 14.9472 15.3814 14.8369C16.457 14.4791 15.6294 10.6358 16.8634 8.16784C18.3454 5.20392 20.9 4.46288 23.1613 5.20389C23.9028 5.94506 21.4687 7.17268 20.8998 8.16784C19.9793 9.77818 20.539 12.3059 21.7294 12.723C23.5323 13.3549 25.5416 11.0297 26.1258 8.16801C26.9307 4.22504 29.0734 6.75073 29.4597 8.16802C29.9602 10.0045 27.7631 12.5499 25.1701 13.7254C23.924 14.2903 20.8998 15.2073 20.8998 16.3188C20.8998 17.0645 23.376 16.3507 25.0142 15.5778C26.6525 14.805 28.7304 13.2975 29.4601 13.7254C30.2011 14.1599 30.8123 14.7699 27.9782 17.123C25.5761 19.1174 22.2527 20.6282 20.8998 21.0514C19.5469 21.4745 17.4946 21.5928 19.0865 22.2465C20.6785 22.9001 23.7264 22.4724 25.1698 21.3558Z" fill="white"/>
</g>
<defs>
<clipPath id="clip0_35_2">
<rect width="35" height="35" fill="white"/>
</clipPath>
</defs>
</svg>
