<?xml version="1.0" encoding="utf-8"?>
<!-- Generator: Adobe Illustrator 17.0.0, SVG Export Plug-In . SVG Version: 6.00 Build 0)  -->
<!DOCTYPE svg PUBLIC "-//W3C//DTD SVG 1.1//EN" "http://www.w3.org/Graphics/SVG/1.1/DTD/svg11.dtd">
<svg version="1.1" id="Camada_1" xmlns="http://www.w3.org/2000/svg" xmlns:xlink="http://www.w3.org/1999/xlink" x="0px" y="0px"
	 width="294.792px" height="40.764px" viewBox="0 0 294.792 40.764" enable-background="new 0 0 294.792 40.764"
	 xml:space="preserve">
<g>
	<path fill="#94C5FF" d="M27.104,25.236H8.863v14.731H2.268V2.584h6.595v16.803h18.241V2.636h6.595v37.331h-6.595V25.236z"/>
	<path fill="#94C5FF" d="M51.909,40.764c-2.286,0-3.988-1.749-3.988-3.984c0-2.182,1.702-3.992,3.988-3.992
		c2.234,0,3.988,1.81,3.988,3.992C55.898,39.014,54.144,40.764,51.909,40.764z"/>
	<path fill="#94C5FF" d="M76.704,29.12v10.847h-6.595V2.584h11.434c9.944,0,14.944,5.478,14.944,13.294S91.542,29.12,80.268,29.12
		H76.704z M76.704,8.647V23.27h4.361c6.168,0,8.297-3.295,8.297-7.392c0-4.094-2.074-7.231-8.297-7.231H76.704z"/>
	<path fill="#94C5FF" d="M108.739,2.584h24.303v6.062h-17.708v10.475h16.061v5.85h-16.061v8.933h17.708v6.062h-24.303V2.584z"/>
	<path fill="#94C5FF" d="M147.103,2.584h11.967c9.944,0,14.944,5.478,14.944,13.294c0,5.159-2.128,9.254-6.807,11.436l9.572,12.653
		h-7.712l-7.922-11.007c-1.065,0.108-2.18,0.16-3.352,0.16h-4.094v10.847h-6.595V2.584z M153.698,8.647V23.27h4.893
		c6.168,0,8.295-3.295,8.295-7.392c0-4.094-2.074-7.231-8.295-7.231H153.698z"/>
	<path fill="#94C5FF" d="M188.554,2.584h6.595v37.383h-6.595V2.584z"/>
	<path fill="#94C5FF" d="M243.767,20.345v16.011c0,0-5.584,4.252-14.465,4.252c-12.657,0-21.06-8.297-21.06-19.358
		c0-10.795,9.093-19.304,20.155-19.304c8.351,0,13.19,3.031,13.19,3.031l-2.286,5.636c0,0-4.839-2.444-9.786-2.444
		c-8.775,0-14.145,5.53-14.145,13.188c0,7.5,5.742,13.03,13.508,13.03c3.456,0,6.487-0.745,8.509-1.49v-6.647h-10.425v-5.904
		H243.767z"/>
	<path fill="#94C5FF" d="M274.795,1.945c11.594,0,19.997,8.136,19.997,19.304c0,11.01-8.563,19.306-19.997,19.306
		c-11.434,0-19.943-8.245-19.943-19.306C254.852,10.454,263.575,1.945,274.795,1.945z M274.849,34.758
		c7.231,0,12.869-5.798,12.869-13.402c0-7.658-5.372-13.454-12.869-13.454c-7.392,0-12.869,5.796-12.869,13.454
		C261.98,28.856,267.615,34.758,274.849,34.758z"/>
</g>
<g>
	<path fill="#FFFFFF" d="M24.836,23.29H6.595v14.731H0V0.639h6.595v16.803h18.241V0.691h6.595v37.331h-6.595V23.29z"/>
	<path fill="#FFFFFF" d="M49.642,38.818c-2.286,0-3.988-1.749-3.988-3.984c0-2.182,1.702-3.992,3.988-3.992
		c2.234,0,3.988,1.81,3.988,3.992C53.63,37.069,51.876,38.818,49.642,38.818z"/>
	<path fill="#FFFFFF" d="M74.437,27.174v10.847h-6.595V0.639h11.434c9.944,0,14.944,5.478,14.944,13.294S89.274,27.174,78,27.174
		H74.437z M74.437,6.701v14.623h4.361c6.168,0,8.297-3.295,8.297-7.392c0-4.094-2.074-7.231-8.297-7.231H74.437z"/>
	<path fill="#FFFFFF" d="M106.472,0.639h24.303v6.062h-17.708v10.475h16.061v5.85h-16.061v8.933h17.708v6.062h-24.303V0.639z"/>
	<path fill="#FFFFFF" d="M144.835,0.639h11.967c9.944,0,14.944,5.478,14.944,13.294c0,5.159-2.128,9.254-6.807,11.436l9.572,12.653
		h-7.712l-7.922-11.007c-1.065,0.108-2.18,0.16-3.352,0.16h-4.094v10.847h-6.595V0.639z M151.43,6.701v14.623h4.893
		c6.168,0,8.295-3.295,8.295-7.392c0-4.094-2.074-7.231-8.295-7.231H151.43z"/>
	<path fill="#FFFFFF" d="M186.286,0.639h6.595v37.383h-6.595V0.639z"/>
	<path fill="#FFFFFF" d="M241.499,18.399V34.41c0,0-5.584,4.252-14.465,4.252c-12.657,0-21.06-8.297-21.06-19.358
		C205.974,8.509,215.067,0,226.129,0c8.351,0,13.19,3.031,13.19,3.031l-2.286,5.636c0,0-4.839-2.444-9.786-2.444
		c-8.775,0-14.145,5.53-14.145,13.188c0,7.5,5.742,13.03,13.508,13.03c3.456,0,6.487-0.745,8.509-1.49v-6.647h-10.425v-5.904
		H241.499z"/>
	<path fill="#FFFFFF" d="M272.527,0c11.594,0,19.997,8.136,19.997,19.304c0,11.01-8.563,19.306-19.997,19.306
		s-19.943-8.245-19.943-19.306C252.584,8.509,261.308,0,272.527,0z M272.581,32.812c7.231,0,12.869-5.798,12.869-13.402
		c0-7.658-5.372-13.454-12.869-13.454c-7.392,0-12.869,5.796-12.869,13.454C259.712,26.91,265.348,32.812,272.581,32.812z"/>
</g>
</svg>
